<svg width="297" height="200" viewBox="0 0 297 200" fill="none" xmlns="http://www.w3.org/2000/svg">
<g clip-path="url(#clip0_30_156)">
<path d="M249.645 200C275.799 200 297 198.41 297 196.45C297 194.489 275.799 192.899 249.645 192.899C223.492 192.899 202.29 194.489 202.29 196.45C202.29 198.41 223.492 200 249.645 200Z" fill="#E6E6E6"/>
<path d="M48.2338 55.0836C48.249 51.4701 45.1578 48.5144 41.5293 48.5144H7.85975C4.28865 48.5144 1.20325 51.4212 1.16144 54.9773C1.14848 55.988 1.37141 56.9879 1.81266 57.8982C2.2539 58.8085 2.9014 59.6042 3.70412 60.2228C3.90989 60.3755 4.07182 60.5793 4.17372 60.8138C4.27562 61.0483 4.31392 61.3054 4.28481 61.5593C4.24575 61.8475 4.22616 62.1379 4.22619 62.4287V85.6217C4.22619 86.4754 4.39504 87.3208 4.72309 88.1095C5.05114 88.8983 5.53198 89.6149 6.13814 90.2186C6.7443 90.8222 7.46392 91.3011 8.25592 91.6278C9.04791 91.9545 9.89676 92.1226 10.754 92.1226H38.4219C40.1532 92.1226 41.8136 91.4377 43.0378 90.2186C44.262 88.9994 44.9497 87.3459 44.9497 85.6218V62.4287C44.9498 62.1742 44.9349 61.92 44.9051 61.6673C44.8788 61.4171 44.9202 61.1644 45.0249 60.9355C45.1297 60.7066 45.294 60.5097 45.5009 60.3653C46.3433 59.7629 47.0303 58.97 47.5054 58.0519C47.9805 57.1337 48.2301 56.1165 48.2338 55.0836Z" fill="#3F3D56"/>
<path d="M46.7757 54.4475C46.6078 53.1894 45.9838 52.0359 45.0212 51.2042C44.0586 50.3725 42.8239 49.9199 41.5495 49.9319H7.84971C6.65839 49.9212 5.49907 50.3156 4.5632 51.0498C3.62734 51.784 2.97091 52.8141 2.70233 53.97C2.47238 55.0323 2.58698 56.14 3.02963 57.1333C3.47229 58.1267 4.22014 58.9544 5.16545 59.4974C5.43835 59.6528 5.65162 59.8941 5.77171 60.1834C5.89181 60.4728 5.91192 60.7936 5.82886 61.0956C5.70928 61.5304 5.64889 61.9792 5.64933 62.43V85.6209C5.64948 86.806 6.06521 87.9539 6.82472 88.8664C7.58423 89.7788 8.63984 90.3985 9.80926 90.6184C10.1212 90.6763 10.4378 90.7055 10.7551 90.7056H38.423C38.8901 90.7063 39.3551 90.6425 39.8046 90.5159C40.8756 90.2157 41.8189 89.5753 42.4908 88.692C43.1627 87.8088 43.5264 86.7311 43.5266 85.623V62.4278C43.5267 62.0057 43.4737 61.5853 43.369 61.1763C43.3404 61.0629 43.3257 60.9465 43.3252 60.8296C43.3254 60.5732 43.3956 60.3217 43.5282 60.102C43.6609 59.8824 43.8511 59.7027 44.0784 59.5824L44.0805 59.5802C44.9974 59.0955 45.7456 58.3458 46.2267 57.4297C46.7077 56.5136 46.8991 55.474 46.7757 54.4475Z" fill="#E5A93F"/>
<path opacity="0.2" d="M43.5266 64.6496V62.4692H39.8046V49.9319H37.6151V62.4692H25.9016V49.9319H23.7122V62.4692H11.9987V49.9319H9.80926V62.4692H5.64932V64.6496H9.80926V71.1909H5.64932V73.3713H9.80926V79.9125H5.64932V82.093H9.80926V90.6184C10.1212 90.6763 10.4378 90.7055 10.7551 90.7056H11.9987V82.0929H23.7122V90.7056H25.9016V82.0929H37.6151V90.7056H38.423C38.8901 90.7063 39.3551 90.6424 39.8045 90.5159V82.0929H43.5266V79.9125H39.8046V73.3713H43.5266V71.1909H39.8046V64.6496H43.5266ZM11.9987 64.6496H23.7122V71.1909H11.9987V64.6496ZM11.9987 79.9125V73.3713H23.7122V79.9125H11.9987ZM37.6151 79.9125H25.9016V73.3713H37.6151V79.9125ZM37.6151 71.1909H25.9016V64.6496H37.6151V71.1909Z" fill="black"/>
<path d="M48.0804 0C48.0804 3.05804 47.4756 6.08613 46.3005 8.91139C45.1254 11.7367 43.403 14.3038 41.2317 16.4661C39.0604 18.6285 36.4827 20.3438 33.6457 21.514C30.8088 22.6843 27.7681 23.2866 24.6974 23.2866C21.6267 23.2866 18.5861 22.6843 15.7492 21.514C12.9122 20.3438 10.3345 18.6285 8.16316 16.4661C5.99185 14.3038 4.26947 11.7367 3.09436 8.91139C1.91926 6.08613 1.31444 3.05804 1.31444 0H48.0804Z" fill="#E5A93F"/>
<path d="M9.89282 4.13382C9.89282 4.74262 9.676 5.23615 9.40855 5.23615C9.14109 5.23615 8.92429 4.74262 8.92429 4.13382C8.95368 3.72187 9.1247 3.33258 9.40855 3.03149C9.6924 3.33258 9.86342 3.72187 9.89282 4.13382Z" fill="#3F3D56"/>
<path d="M34.3827 7.99198C34.3827 8.60077 34.1659 9.0943 33.8984 9.0943C33.631 9.0943 33.4142 8.60077 33.4142 7.99198C33.4436 7.58003 33.6146 7.19074 33.8984 6.88965C34.1823 7.19074 34.3533 7.58003 34.3827 7.99198Z" fill="#3F3D56"/>
<path d="M16.3958 5.78714C16.3958 6.39593 16.179 6.88947 15.9115 6.88947C15.6441 6.88947 15.4272 6.39593 15.4272 5.78714C15.4566 5.37519 15.6277 4.9859 15.9115 4.68481C16.1954 4.9859 16.3664 5.37519 16.3958 5.78714Z" fill="#3F3D56"/>
<path d="M26.081 14.468C26.081 15.0768 25.8642 15.5704 25.5968 15.5704C25.3293 15.5704 25.1125 15.0768 25.1125 14.468C25.1419 14.0561 25.3129 13.6668 25.5968 13.3657C25.8806 13.6668 26.0516 14.0561 26.081 14.468Z" fill="#3F3D56"/>
<path d="M15.704 13.3658C15.704 13.9745 15.4872 14.4681 15.2197 14.4681C14.9523 14.4681 14.7354 13.9745 14.7354 13.3658C14.7648 12.9538 14.9359 12.5645 15.2197 12.2634C15.5036 12.5645 15.6746 12.9538 15.704 13.3658Z" fill="#3F3D56"/>
<path d="M39.9171 3.03128C39.9171 3.64008 39.7003 4.13361 39.4329 4.13361C39.1654 4.13361 38.9486 3.64008 38.9486 3.03128C38.978 2.61933 39.149 2.23004 39.4329 1.92896C39.7167 2.23004 39.8877 2.61933 39.9171 3.03128Z" fill="#3F3D56"/>
<path d="M31.062 16.6726C31.062 17.2814 30.8452 17.775 30.5778 17.775C30.3103 17.775 30.0935 17.2814 30.0935 16.6726C30.1229 16.2607 30.2939 15.8714 30.5778 15.5703C30.8616 15.8714 31.0326 16.2607 31.062 16.6726Z" fill="#3F3D56"/>
<path d="M24.6974 24.5956C18.1495 24.5882 11.872 21.9945 7.2419 17.3836C2.61183 12.7726 0.00741162 6.5209 0 0H2.62884C2.62884 2.88614 3.19966 5.74402 4.30871 8.41046C5.41776 11.0769 7.04332 13.4997 9.09258 15.5405C11.1418 17.5813 13.5746 19.2002 16.2521 20.3046C18.9296 21.4091 21.7993 21.9776 24.6974 21.9776C27.5955 21.9776 30.4652 21.4091 33.1427 20.3046C35.8202 19.2002 38.253 17.5813 40.3023 15.5405C42.3515 13.4997 43.9771 11.0769 45.0861 8.41046C46.1952 5.74402 46.766 2.88614 46.766 0H49.3948C49.3874 6.52089 46.783 12.7726 42.1529 17.3836C37.5229 21.9945 31.2453 24.5882 24.6974 24.5956Z" fill="#3F3D56"/>
<path d="M81.5853 8.44385H73.8455V16.1518H81.5853V8.44385Z" fill="#3F3D56"/>
<path d="M157.436 11.9124H95.1301V12.6831H157.436V11.9124Z" fill="#3F3D56"/>
<path d="M81.5853 66.4646H73.8455V74.1725H81.5853V66.4646Z" fill="#3F3D56"/>
<path d="M157.436 69.9331H95.1301V70.7039H157.436V69.9331Z" fill="#3F3D56"/>
<path d="M81.5853 124.082H73.8455V131.79H81.5853V124.082Z" fill="#3F3D56"/>
<path d="M157.436 127.551H95.1301V128.322H157.436V127.551Z" fill="#3F3D56"/>
<path d="M244.705 52.9322L234.818 60.693L213.868 53.3605C213.868 53.3605 206.745 45.3815 202.717 51.3244C201.337 53.3597 210.373 57.1199 211.225 57.4694C213.356 58.343 233.771 69.4965 235.771 68.0332C237.772 66.5699 249.027 59.1688 249.027 59.1688L244.705 52.9322Z" fill="#A0616A"/>
<path d="M278.454 39.6931C269.084 36.2061 260.17 34.5563 252.943 39.6931V23.1144C252.943 21.4463 253.273 19.7944 253.914 18.2532C254.555 16.712 255.495 15.3116 256.679 14.132C257.864 12.9524 259.27 12.0167 260.817 11.3783C262.365 10.74 264.024 10.4114 265.699 10.4114C267.374 10.4114 269.033 10.74 270.58 11.3783C272.128 12.0167 273.534 12.9524 274.718 14.132C275.903 15.3116 276.842 16.712 277.483 18.2532C278.124 19.7944 278.454 21.4463 278.454 23.1145L278.454 39.6931Z" fill="#2F2E41"/>
<path d="M254.909 75.9095L254.144 81.2472C254.144 81.2472 252.229 86.9663 254.144 97.6418L223.324 181.331L246.104 187.812L257.398 142.06L273.286 107.174L271.755 146.826L263.715 189.147L287.451 188.193L294.368 115.626C295.487 104.157 293.489 92.5998 288.585 82.1637C286.666 78.1054 284.603 74.907 282.731 74.4427C277.114 73.0499 254.909 75.9095 254.909 75.9095Z" fill="#2F2E41"/>
<path d="M226.196 180.759L218.347 189.146C218.347 189.146 203.225 196.962 213.945 197.916C224.664 198.869 228.301 194.675 228.301 194.675C228.301 194.675 241.701 193.722 241.51 191.815C241.318 189.909 240.361 183.618 240.361 183.618L226.196 180.759Z" fill="#2F2E41"/>
<path d="M268.788 182.781V188.691C268.788 188.691 268.979 191.169 268.788 191.741C268.596 192.313 265.725 199.366 275.296 197.841C284.867 196.316 281.039 190.406 281.039 190.406L278.742 181.828L268.788 182.781Z" fill="#2F2E41"/>
<path d="M265.581 34.7323C270.894 34.7323 275.2 30.4434 275.2 25.1529C275.2 19.8623 270.894 15.5735 265.581 15.5735C260.269 15.5735 255.962 19.8623 255.962 25.1529C255.962 30.4434 260.269 34.7323 265.581 34.7323Z" fill="#A0616A"/>
<path d="M272.233 30.4429C272.233 30.4429 270.893 43.0248 272.233 45.3124C273.573 47.6001 258.642 43.0248 258.642 43.0248C258.642 43.0248 261.896 34.4463 260.748 31.0148C259.599 27.5834 272.233 30.4429 272.233 30.4429Z" fill="#A0616A"/>
<path d="M279.89 66.6635L282.953 75.0515L254.431 78.2923C254.431 78.2923 251.368 77.7204 251.368 75.2421C251.368 72.7638 248.114 63.9946 248.114 63.9946C248.114 63.9946 240.144 57.5614 236.315 55.8457C234.927 55.2242 237.003 55.4809 238.171 52.8425C238.521 52.0495 238.941 51.2126 239.398 50.3643C239.771 49.6684 240.173 48.9631 240.585 48.2673C241.085 47.4189 241.6 46.584 242.099 45.789C243.611 43.3851 244.992 41.3644 245.434 40.5466C246.774 38.0683 259.371 37.8472 259.371 37.8472C262.974 40.1043 273.382 40.5466 273.382 40.5466C273.382 40.5466 280.541 43.53 283.523 45.789C283.74 45.9511 279.89 66.6635 279.89 66.6635Z" fill="#E6E6E6"/>
<path d="M273.698 13.6532V13.4257L273.427 13.4408C271.884 12.2712 270.095 11.4668 268.194 11.0885C266.293 10.7102 264.331 10.768 262.456 11.2575C264.253 11.7306 265.925 12.5906 267.352 13.7768L258.132 14.2869L254.24 22.8992H256.874L258.997 19.0237V22.8992H267.904L268.509 19.8849L270.191 22.8992H271.941C271.952 23.1141 271.968 23.3275 271.968 23.5451L270.239 40.1238L278.454 36.6789V23.5451C278.456 21.6468 278.029 19.7725 277.206 18.0604C276.383 16.3483 275.184 14.8422 273.698 13.6532Z" fill="#2F2E41"/>
<path d="M286.59 57.5132L286.016 72.5733L284.484 101.74C284.484 101.74 286.59 114.322 281.23 114.132C275.87 113.941 279.89 99.2622 279.89 99.2622L278.359 76.1954L279.89 59.9914L286.59 57.5132Z" fill="#A0616A"/>
<path d="M288.121 65.7105C288.121 67.4262 278.454 66.9496 278.454 66.9496L273.382 40.5466C273.382 40.5466 280.541 43.5301 283.523 45.7891C284.225 46.5142 284.799 47.352 285.221 48.2673C285.449 48.8793 285.665 49.5884 285.87 50.3643C286.073 51.1345 286.263 51.9714 286.441 52.8426C287.276 57.0917 287.837 61.3898 288.121 65.7105Z" fill="#E6E6E6"/>
<path d="M24.4371 126.959L9.78475 125.448C9.89734 124.673 9.81089 123.883 9.5335 123.15C9.2561 122.417 8.7968 121.767 8.19849 121.259C7.60017 120.751 6.88237 120.403 6.11212 120.246C5.34188 120.089 4.54432 120.129 3.79394 120.363C3.04356 120.596 2.36483 121.015 1.82116 121.581C1.27749 122.146 0.886602 122.84 0.685017 123.597C0.483431 124.353 0.477726 125.149 0.668424 125.908C0.859121 126.668 1.24 127.367 1.7755 127.94C1.23143 128.525 0.848208 129.24 0.662908 130.016C0.477609 130.792 0.496499 131.603 0.717754 132.369C0.93901 133.136 1.35514 133.832 1.9259 134.392C2.49665 134.951 3.20272 135.354 3.97581 135.563C4.7489 135.771 5.56284 135.777 6.33891 135.58C7.11498 135.383 7.82692 134.99 8.40586 134.439C8.9848 133.888 9.41115 133.197 9.64368 132.434C9.87621 131.671 9.90704 130.861 9.73319 130.082L24.4371 128.736V126.959Z" fill="#CCCCCC"/>
<path d="M39.337 136.988C45.0971 138.399 50.8998 134.33 51.2001 128.43C51.2084 128.267 51.2126 128.102 51.2126 127.936C51.2127 127.771 51.2085 127.606 51.2001 127.442C50.8998 121.543 45.0971 117.474 39.337 118.884L19.796 123.67C19.2331 123.669 18.6755 123.779 18.1553 123.993C17.6351 124.208 17.1623 124.522 16.7641 124.918C16.3658 125.314 16.0499 125.785 15.8343 126.303C15.6188 126.82 15.5078 127.376 15.5078 127.936C15.5078 128.497 15.6188 129.052 15.8343 129.57C16.0499 130.088 16.3658 130.558 16.7641 130.954C17.1623 131.351 17.6351 131.665 18.1553 131.879C18.6755 132.093 19.2331 132.203 19.796 132.203L39.337 136.988Z" fill="#E5A93F"/>
</g>
<defs>
<clipPath id="clip0_30_156">
<rect width="297" height="200" fill="white"/>
</clipPath>
</defs>
</svg>
