<svg width="261" height="200" viewBox="0 0 261 200" fill="none" xmlns="http://www.w3.org/2000/svg">
<g clip-path="url(#clip0_32_189)">
<path d="M104.439 41.4754H103.487V15.2048C103.487 13.208 103.097 11.2309 102.338 9.38615C101.579 7.54143 100.467 5.86527 99.0653 4.45337C97.6635 3.04148 95.9993 1.92151 94.1677 1.1574C92.3361 0.393286 90.373 1.69177e-06 88.3905 0H33.1288C29.1249 -7.68741e-06 25.2851 1.60191 22.4539 4.45334C19.6228 7.30477 18.0322 11.1722 18.0322 15.2047V159.328C18.0322 161.324 18.4227 163.301 19.1814 165.146C19.94 166.991 21.052 168.667 22.4539 170.079C23.8557 171.491 25.5199 172.611 27.3515 173.375C29.1831 174.139 31.1462 174.532 33.1287 174.532H88.3904C92.3943 174.532 96.2341 172.93 99.0653 170.079C101.896 167.228 103.487 163.36 103.487 159.328V60.1753H104.439V41.4754Z" fill="#3F3D56"/>
<path d="M88.9996 3.95581H81.7861C82.1178 4.77494 82.2445 5.66366 82.1548 6.54368C82.0652 7.42371 81.7621 8.26803 81.2721 9.00227C80.7822 9.73651 80.1205 10.3381 79.3453 10.7541C78.5702 11.1701 77.7053 11.3878 76.827 11.3878H45.1682C44.2899 11.3878 43.4251 11.1701 42.6499 10.7541C41.8747 10.3381 41.213 9.73651 40.7231 9.00227C40.2332 8.26803 39.93 7.42371 39.8404 6.54369C39.7508 5.66366 39.8774 4.77494 40.2091 3.95581H33.4717C31.9912 3.95581 30.5252 4.24951 29.1574 4.82014C27.7896 5.39076 26.5467 6.22715 25.4999 7.28153C24.453 8.33591 23.6226 9.58765 23.056 10.9653C22.4894 12.3429 22.1978 13.8194 22.1978 15.3105V159.222C22.1978 160.713 22.4894 162.19 23.056 163.567C23.6226 164.945 24.453 166.197 25.4999 167.251C26.5467 168.305 27.7896 169.142 29.1574 169.712C30.5252 170.283 31.9912 170.577 33.4717 170.577H88.9996C90.4801 170.577 91.9461 170.283 93.3139 169.712C94.6817 169.142 95.9245 168.305 96.9714 167.251C98.0183 166.197 98.8487 164.945 99.4153 163.567C99.9819 162.19 100.273 160.713 100.273 159.222V15.3105C100.273 13.8194 99.9819 12.3429 99.4153 10.9653C98.8487 9.58765 98.0183 8.33591 96.9714 7.28153C95.9245 6.22715 94.6817 5.39076 93.3139 4.82014C91.9461 4.24951 90.4801 3.95581 88.9996 3.95581Z" fill="white"/>
<path d="M122.152 174.557H0.319769C0.234961 174.557 0.153626 174.523 0.0936578 174.463C0.0336896 174.402 0 174.321 0 174.235C0 174.15 0.0336896 174.068 0.0936578 174.007C0.153626 173.947 0.234961 173.913 0.319769 173.913H122.152C122.236 173.913 122.318 173.947 122.378 174.007C122.438 174.068 122.471 174.15 122.471 174.235C122.471 174.321 122.438 174.402 122.378 174.463C122.318 174.523 122.236 174.557 122.152 174.557Z" fill="#CBCBCB"/>
<path d="M61.2357 111.33C76.1491 111.33 88.2389 99.1535 88.2389 84.1331C88.2389 69.1127 76.1491 56.9363 61.2357 56.9363C46.3222 56.9363 34.2324 69.1127 34.2324 84.1331C34.2324 99.1535 46.3222 111.33 61.2357 111.33Z" fill="#E5A93F"/>
<path d="M58.5598 94.508C57.9523 94.509 57.361 94.3111 56.8749 93.944L56.8448 93.9213L50.4987 89.0319C50.2047 88.8049 49.9581 88.5219 49.7728 88.1989C49.5875 87.876 49.4671 87.5194 49.4186 87.1496C49.3701 86.7799 49.3944 86.4041 49.4901 86.0437C49.5858 85.6834 49.7511 85.3456 49.9764 85.0495C50.2017 84.7535 50.4827 84.5051 50.8034 84.3185C51.124 84.1318 51.478 84.0106 51.8452 83.9618C52.2124 83.9129 52.5855 83.9374 52.9433 84.0338C53.301 84.1302 53.6365 84.2966 53.9304 84.5235L58.0409 87.6982L67.7542 74.9353C67.9795 74.6394 68.2604 74.391 68.5809 74.2045C68.9014 74.0179 69.2553 73.8968 69.6223 73.8479C69.9893 73.7991 70.3622 73.8236 70.7199 73.9199C71.0775 74.0163 71.4128 74.1826 71.7066 74.4095L71.7074 74.4101L71.6471 74.4944L71.709 74.4101C72.3017 74.8689 72.6895 75.5458 72.7873 76.2922C72.885 77.0386 72.6848 77.7937 72.2305 78.3916L60.8054 93.3969C60.5411 93.7427 60.2013 94.0225 59.8123 94.2146C59.4233 94.4066 58.9955 94.5059 58.5623 94.5046L58.5598 94.508Z" fill="white"/>
<path d="M221.998 177.23C222.326 176.695 222.713 176.199 223.151 175.75C223.331 175.562 223.522 175.384 223.718 175.211C224.912 174.141 226.367 173.41 227.935 173.094C229.502 172.778 231.125 172.888 232.636 173.413C234.147 173.938 235.492 174.859 236.532 176.081C237.573 177.303 238.271 178.782 238.556 180.366C239.875 175.454 236.442 170.616 232.99 166.899C229.537 163.184 225.59 159.108 225.609 154.017C225.619 151.185 226.995 148.657 229.072 146.784C229.136 146.727 229.2 146.67 229.266 146.616C231.777 144.448 235.007 143.314 238.311 143.441C244.451 143.772 249.811 147.928 253.534 152.857C259.526 160.788 262.152 171.922 257.957 180.951C254.267 188.892 246.398 193.607 238.366 197.398C237.245 197.928 236.125 198.441 235.008 198.939C235.001 198.941 234.993 198.946 234.985 198.948C234.932 198.972 234.878 198.995 234.828 199.02C234.597 199.122 234.366 199.225 234.138 199.326L234.244 199.396L234.574 199.611C234.459 199.541 234.346 199.473 234.232 199.404C234.198 199.382 234.162 199.363 234.128 199.341C230.183 196.958 226.184 194.436 223.458 190.714C220.632 186.85 219.496 181.315 221.998 177.23Z" fill="#F1F1F1"/>
<path d="M248.315 168.257C249.189 170.258 249.768 172.377 250.034 174.546C250.244 176.481 250.165 178.436 249.801 180.348C249.017 184.275 247.309 187.955 244.82 191.079C242.941 193.451 240.773 195.574 238.366 197.398C237.245 197.928 236.125 198.441 235.008 198.939C235.001 198.941 234.993 198.946 234.985 198.948C234.932 198.972 234.878 198.996 234.828 199.02C234.597 199.123 234.366 199.225 234.138 199.326L234.244 199.396L234.574 199.611C234.459 199.541 234.346 199.474 234.232 199.404C234.198 199.383 234.162 199.363 234.128 199.342C234.996 196.283 235.123 193.06 234.5 189.942C233.876 186.824 232.52 183.901 230.544 181.42C228.558 178.97 226.024 177.027 223.151 175.751C223.331 175.562 223.522 175.384 223.718 175.211C224.825 175.723 225.885 176.333 226.885 177.033C230.462 179.523 233.148 183.107 234.546 187.255C235.794 191.018 235.949 195.061 234.995 198.91C235.193 198.779 235.392 198.645 235.585 198.512C239.26 196.016 242.647 193.019 245.198 189.343C247.398 186.236 248.806 182.633 249.298 178.849C249.787 174.716 248.76 170.651 246.928 166.963C244.904 163.017 242.355 159.369 239.35 156.119C236.332 152.78 232.92 149.825 229.189 147.32C229.105 147.263 229.046 147.175 229.024 147.075C229.003 146.976 229.02 146.871 229.072 146.784C229.112 146.704 229.182 146.644 229.266 146.616C229.308 146.605 229.353 146.604 229.396 146.613C229.439 146.621 229.48 146.64 229.515 146.667C229.976 146.976 230.432 147.288 230.883 147.61C234.64 150.289 238.052 153.428 241.041 156.955C243.929 160.354 246.557 164.131 248.315 168.257Z" fill="white"/>
<path d="M167.892 12.6281C171.059 12.6281 173.627 10.0422 173.627 6.85228C173.627 3.66236 171.059 1.07642 167.892 1.07642C164.725 1.07642 162.157 3.66236 162.157 6.85228C162.157 10.0422 164.725 12.6281 167.892 12.6281Z" fill="#F1F1F1"/>
<path d="M239.2 89.9228C241.131 89.9228 242.697 88.3462 242.697 86.4013C242.697 84.4565 241.131 82.8799 239.2 82.8799C237.269 82.8799 235.704 84.4565 235.704 86.4013C235.704 88.3462 237.269 89.9228 239.2 89.9228Z" fill="#F1F1F1"/>
<path d="M136.874 99.5846C138.805 99.5846 140.371 98.008 140.371 96.0632C140.371 94.1183 138.805 92.5417 136.874 92.5417C134.943 92.5417 133.378 94.1183 133.378 96.0632C133.378 98.008 134.943 99.5846 136.874 99.5846Z" fill="#F1F1F1"/>
<path d="M138.848 200H260.68C260.765 200 260.846 199.966 260.906 199.906C260.966 199.845 261 199.763 261 199.678C261 199.593 260.966 199.511 260.906 199.45C260.846 199.39 260.765 199.356 260.68 199.356H138.848C138.764 199.356 138.682 199.39 138.622 199.45C138.562 199.511 138.529 199.593 138.529 199.678C138.529 199.763 138.562 199.845 138.622 199.906C138.682 199.966 138.764 200 138.848 200Z" fill="#CBCBCB"/>
<path d="M247.235 31.1224C247.395 29.9784 247.133 28.8152 246.498 27.8529C245.864 26.8907 244.901 26.1964 243.792 25.9016C242.682 25.6068 241.505 25.732 240.481 26.2534C239.458 26.7748 238.66 27.6562 238.238 28.7307L228.352 40.1459L231.253 48.3059L241.195 34.9677C241.844 35.177 242.53 35.2405 243.206 35.1537C243.882 35.0669 244.531 34.8319 245.107 34.4653C245.682 34.0987 246.172 33.6094 246.539 33.0318C246.907 32.4542 247.145 31.8024 247.235 31.1224Z" fill="#FFB7B7"/>
<path d="M206.255 75.5392L239.072 40.2642L234.646 33.1763L193.484 68.2371L206.255 75.5392Z" fill="#3F3D56"/>
<path d="M198.93 54.1064C205.288 54.1064 210.442 48.9155 210.442 42.5122C210.442 36.1089 205.288 30.918 198.93 30.918C192.573 30.918 187.419 36.1089 187.419 42.5122C187.419 48.9155 192.573 54.1064 198.93 54.1064Z" fill="#2F2E41"/>
<path d="M199.856 35.9623C202.333 33.4323 205.331 31.48 208.638 30.2427C210.761 29.4507 213.071 28.9613 215.29 29.4111C217.51 29.8609 219.609 31.4073 220.228 33.6004C220.734 35.3937 220.211 37.3246 219.426 39.0128C218.64 40.701 217.591 42.2664 216.955 44.0176C216.307 45.8044 216.112 47.726 216.388 49.6079C216.664 51.4899 217.403 53.2726 218.536 54.7942C219.67 56.3159 221.163 57.5282 222.88 58.3213C224.597 59.1144 226.483 59.463 228.368 59.3356C226.187 59.63 224.177 60.6621 222.046 61.2115C219.914 61.7609 217.399 61.7236 215.815 60.1857C214.139 58.5585 214.105 55.9128 214.186 53.5697C214.307 50.0867 214.427 46.6036 214.548 43.1205C214.609 41.3442 214.661 39.5109 214.025 37.853C213.389 36.1951 211.878 34.7433 210.113 34.7584C208.776 34.7698 207.592 35.5858 206.519 36.3906C205.447 37.1953 204.312 38.0539 202.979 38.1736C201.647 38.2933 200.126 37.3004 200.226 35.9571L199.856 35.9623Z" fill="#2F2E41"/>
<path d="M155.208 120.362C154.103 120.671 152.924 120.561 151.894 120.053C150.864 119.545 150.054 118.674 149.619 117.605C149.184 116.536 149.153 115.344 149.533 114.253C149.912 113.163 150.676 112.251 151.678 111.69L161.623 100.327L170.035 102.157L158.204 113.828C158.495 114.448 158.647 115.125 158.65 115.812C158.653 116.498 158.506 117.176 158.221 117.799C157.935 118.422 157.517 118.974 156.997 119.417C156.476 119.86 155.866 120.182 155.208 120.362Z" fill="#FFB7B7"/>
<path d="M187.927 79.6795L163.14 111.016L155.585 107.522L184.719 61.8396L187.927 79.6795Z" fill="#3F3D56"/>
<path d="M168.15 174.303L162.242 174.21L162.953 194.489H168.149L168.15 174.303Z" fill="#FFB7B7"/>
<path d="M169.474 192.78L159.241 192.78H159.241C157.511 192.78 155.853 193.472 154.63 194.703C153.407 195.935 152.72 197.606 152.719 199.347V199.561L169.474 199.562L169.474 192.78Z" fill="#2F2E41"/>
<path d="M207.263 168.925L200.81 173.097L213.718 188.738L218.09 185.911L207.263 168.925Z" fill="#FFB7B7"/>
<path d="M218.289 183.752L209.678 189.32L209.678 189.32C208.223 190.261 207.198 191.746 206.83 193.448C206.461 195.15 206.779 196.929 207.714 198.395L207.828 198.575L221.927 189.458L218.289 183.752Z" fill="#2F2E41"/>
<path d="M209.562 107.002C209.562 107.002 195.223 59.0379 190.616 58.3897C186.008 57.7416 178.583 70.6967 178.583 70.6967C168.957 83.0665 159.031 123.135 159.031 123.135C159.031 123.135 175.578 124.178 187.674 130.659C199.77 137.141 214.045 130.331 214.045 130.331L209.562 107.002Z" fill="#3F3D56"/>
<path opacity="0.1" d="M209.562 107.002C209.562 107.002 195.223 59.0379 190.616 58.3898C186.008 57.7416 180.469 70.8282 180.469 70.8282C175.672 90.796 159.031 123.135 159.031 123.135C159.031 123.135 175.578 124.178 187.674 130.659C199.77 137.141 214.045 130.331 214.045 130.331L209.562 107.002Z" fill="black"/>
<path d="M197.798 92.6513V116.753L200.614 151.665L214.684 178.074L207.969 182.905L188.783 157.785L181.195 132.841L169.277 188.058L160.324 187.414L166.542 110.857L178.342 89.3076L197.798 92.6513Z" fill="#2F2E41"/>
<path d="M183.342 69.3397C178.865 73.8486 183.022 78.6795 183.022 78.6795L177.906 90.2737L198.051 95.7487L205.091 64.0649L200.295 58.9119C190.702 58.5899 190.696 58.3896 190.696 58.3896C189.016 60.0463 183.342 69.3397 183.342 69.3397Z" fill="#E5A93F"/>
<path d="M205.902 60.7826C204.988 60.1024 203.948 59.6117 202.843 59.3391C201.739 59.0665 200.591 59.0174 199.468 59.1945C198.344 59.3716 197.267 59.7715 196.298 60.371C195.329 60.9705 194.487 61.7577 193.822 62.687C188.758 69.7891 184.075 81.2574 190.527 95.5603C200.888 118.526 209.903 130.283 213.568 130.282C213.728 130.283 213.887 130.258 214.039 130.207C216.295 129.437 219.557 125.592 220.148 122.203C220.359 120.991 220.309 119.301 218.869 118.141C214.732 114.809 207.307 104.434 204.99 90.7778C203.71 83.232 206.193 76.3585 208.501 71.9212C209.476 70.0852 209.761 67.9568 209.304 65.9262C208.847 63.8955 207.679 62.0987 206.014 60.8651L205.902 60.7826Z" fill="#3F3D56"/>
<path d="M199.523 52.9673C203.629 50.7064 205.138 45.5207 202.893 41.3848C200.649 37.2489 195.5 35.7289 191.393 37.9898C187.287 40.2507 185.778 45.4363 188.022 49.5723C190.267 53.7082 195.416 55.2282 199.523 52.9673Z" fill="#FFB7B7"/>
<path d="M183.541 44.8331H195.777L195.902 43.0638L196.53 44.8331H198.414L198.662 41.3263L199.906 44.8331H203.551V44.6594C203.549 42.218 202.585 39.8774 200.871 38.1511C199.157 36.4247 196.833 35.4537 194.409 35.4509H192.684C190.26 35.4537 187.936 36.4247 186.222 38.1511C184.508 39.8774 183.543 42.218 183.541 44.6594V44.8331Z" fill="#2F2E41"/>
<path d="M201.703 51.1931L206.925 49.4866V36.7151H197.062L197.306 36.9606C200.703 40.378 204.482 52.5024 201.703 51.1931Z" fill="#2F2E41"/>
</g>
<defs>
<clipPath id="clip0_32_189">
<rect width="261" height="200" fill="white"/>
</clipPath>
</defs>
</svg>
