<svg width="233" height="200" viewBox="0 0 233 200" fill="none" xmlns="http://www.w3.org/2000/svg">
<g clip-path="url(#clip0_32_219)">
<path d="M113.597 147.199C119.144 148.925 122.747 153.179 121.645 156.7C120.543 160.221 115.154 161.675 109.606 159.948C107.38 159.288 105.345 158.106 103.671 156.501L80.2627 148.892L84.0766 138.01L106.748 146.667C109.041 146.296 111.39 146.479 113.597 147.199Z" fill="#FFB6B6"/>
<path d="M63.4498 67.3583C57.8682 66.6989 52.7289 70.4619 51.6891 75.9717C47.9804 95.6241 40.1035 138.121 41.1408 139.156C42.4912 140.503 92.9086 155.321 92.9086 155.321L98.7606 142.748L65.4491 126.583L72.7548 79.5794C73.6822 73.6123 69.4613 68.0686 63.4498 67.3583Z" fill="#E6E6E6"/>
<path d="M124.19 167.641C118.778 169.75 113.3 168.674 111.956 165.238C110.611 161.802 113.908 157.308 119.322 155.2C121.474 154.328 123.803 153.982 126.115 154.192L149.159 145.547L152.996 156.42L129.871 163.789C128.313 165.507 126.365 166.828 124.19 167.641Z" fill="#A0616A"/>
<path d="M157.422 74.3149C162.946 73.2829 168.328 76.6929 169.736 82.1205C174.761 101.48 185.483 143.353 184.517 144.455C183.261 145.89 133.956 164.054 133.956 164.054L127.27 151.902L159.417 133.54L148.961 87.1322C147.634 81.2407 151.472 75.4265 157.422 74.3149Z" fill="#E6E6E6"/>
<path d="M59.4959 70.1814L62.2415 53.0643L43.7087 45.5327L40.9631 71.5508L59.4959 70.1814Z" fill="#FFB6B6"/>
<path d="M167.735 72.8755L164.99 55.7584L183.523 48.2268L186.268 74.2449L167.735 72.8755Z" fill="#A0616A"/>
<path d="M54.8126 58.5667C65.2502 58.5667 73.7116 50.1265 73.7116 39.7149C73.7116 29.3033 65.2502 20.863 54.8126 20.863C44.3749 20.863 35.9136 29.3033 35.9136 39.7149C35.9136 50.1265 44.3749 58.5667 54.8126 58.5667Z" fill="#FFB6B6"/>
<path d="M53.3043 14.3699C53.8511 14.6883 54.5836 14.2065 54.759 13.5996C54.9343 12.9927 54.7301 12.3483 54.5275 11.7498L53.5078 8.73713C52.7846 6.60047 52.0171 4.38915 50.4508 2.76288C48.0868 0.308284 44.3298 -0.316155 40.9478 0.136229C36.6046 0.717177 32.3194 3.0631 30.2999 6.94239C28.2805 10.8217 29.1402 16.2347 32.7892 18.655C27.5886 24.6009 25.7757 31.2275 26.062 39.1132C26.3482 46.999 34.9632 54.2564 40.5814 59.8116C41.836 59.053 42.9766 55.4976 42.2867 54.2061C41.5967 52.9145 42.5852 51.4182 41.7308 50.2285C40.8763 49.0388 40.1615 50.9331 41.0253 49.7502C41.5704 49.0038 39.4429 47.2865 40.2532 46.8397C44.1722 44.6788 45.4757 39.8061 47.9371 36.0747C50.906 31.5739 55.9873 28.5259 61.3647 28.0202C64.3269 27.7417 67.4556 28.2462 69.8836 29.9616C72.3116 31.677 73.8835 34.7425 73.3205 37.6568C74.7786 36.1799 75.5045 34.0156 75.2307 31.9608C74.9569 29.906 73.6896 28.0058 71.8953 26.9602C72.9863 23.3613 72.0517 19.2217 69.5195 16.4368C66.9873 13.6519 56.7152 14.1262 53.0183 14.8591" fill="#2F2E41"/>
<path d="M52.7302 28.1294C47.8338 28.6566 44.2985 32.8874 41.3132 36.7945C39.5926 39.0465 37.7902 41.5334 37.8334 44.3645C37.8771 47.2269 39.7957 49.682 40.7126 52.3946C42.2113 56.8285 40.7506 62.1038 37.183 65.1419C40.7082 65.8092 44.5191 63.1726 45.1276 59.6453C45.8361 55.539 42.7156 51.5759 43.0851 47.4256C43.4107 43.7692 46.2993 40.9552 48.7551 38.2213C51.2109 35.4873 53.5173 31.8595 52.3875 28.366" fill="#2F2E41"/>
<path d="M61.637 67.311L40.2405 61.4736L18.1829 70.4543L8.72968 144.994L62.7482 146.79V134.767C62.7482 134.767 72.2015 122.991 70.4009 105.928L68.6003 88.8646L61.637 67.311Z" fill="#E6E6E6"/>
<path d="M71.5262 97.6206L29.2117 95.3755L17.7327 127.93C17.7327 127.93 3.55288 147.463 1.3021 161.832C-0.948673 176.201 0.40179 196.408 0.40179 196.408H68.1448L62.7482 134.767C62.7482 134.767 75.3472 107.499 73.8869 102.785C72.4265 98.0697 71.5262 97.6206 71.5262 97.6206Z" fill="#3F3D56"/>
<path d="M39.1151 61.6982H28.7615V99.8659H39.1151V61.6982Z" fill="#3F3D56"/>
<path d="M71.0761 70.2297H60.7225V101.662H71.0761V70.2297Z" fill="#3F3D56"/>
<path d="M164.694 70.9033L186.091 65.0659L208.148 74.0466L217.601 148.586L163.583 150.382V138.359C163.583 138.359 158.057 126.067 163.358 109.745C168.535 93.8039 157.731 92.4569 157.731 92.4569L164.694 70.9033Z" fill="#E6E6E6"/>
<path d="M154.805 101.213L197.119 98.9678L208.598 131.523C208.598 131.523 215.576 153.75 217.826 168.119C220.077 182.488 225.929 200 225.929 200H158.186L156.155 140.728L154.805 101.213Z" fill="#3F3D56"/>
<path d="M197.569 65.2905H187.216V103.458H197.569V65.2905Z" fill="#3F3D56"/>
<path d="M165.609 73.822H155.255V105.254H165.609V73.822Z" fill="#3F3D56"/>
<path d="M171.921 61.1867C184.994 61.1867 195.591 50.6155 195.591 37.5754C195.591 24.5352 184.994 13.9641 171.921 13.9641C158.848 13.9641 148.25 24.5352 148.25 37.5754C148.25 50.6155 158.848 61.1867 171.921 61.1867Z" fill="#A0616A"/>
<path d="M195.204 50.3839C195.204 50.3839 183.752 36.6759 179.171 37.8182C174.59 38.9606 177.453 40.6741 177.453 40.6741L166.001 28.1084C166.001 28.1084 156.84 24.6814 148.251 35.5336C148.251 35.5336 143.097 26.3949 148.251 21.2544C153.404 16.1138 155.122 16.685 156.267 13.8292C157.412 10.9733 165.428 8.68865 165.428 8.68865C165.428 8.68865 164.969 4.57804 167.489 6.63335C170.009 8.68865 176.303 8.68865 176.303 8.68865C176.303 8.68865 176.339 6.40398 178.9 8.68865C181.461 10.9733 184.324 9.83099 184.324 9.83099C184.324 9.83099 184.324 13.7842 186.328 13.8067C188.332 13.8292 191.768 10.9733 192.341 13.258C192.913 15.5427 196.921 16.685 197.494 23.539C198.067 30.393 195.204 50.3839 195.204 50.3839Z" fill="#2F2E41"/>
<path d="M107.415 85.6249L125.741 120.184L123.229 121.509L104.903 86.9504C104.637 86.4488 104.829 85.8261 105.332 85.5608L106.022 85.1968C106.525 84.9314 107.149 85.1232 107.415 85.6249Z" fill="#3F3D56"/>
<path d="M137.947 133.244C133.284 132.045 128.407 134.168 126.067 138.366C123.137 143.622 119.79 147.935 120.911 137.657C122.145 126.343 115.491 117.205 120.72 114.445C125.95 111.686 131.349 120.072 139.849 127.665C147.726 134.702 143.183 134.591 137.947 133.244Z" fill="#3F3D56"/>
<path d="M110.959 92.6163C116.245 90.2091 121.774 90.9781 123.309 94.3336C124.845 97.6891 121.805 102.36 116.517 104.767C114.418 105.757 112.112 106.232 109.791 106.151L87.2681 116.069L82.8278 105.427L105.503 96.7796C106.963 94.9771 108.833 93.5495 110.959 92.6163Z" fill="#FFB6B6"/>
<path d="M20.1954 66.5449C15.5977 69.7697 14.2882 75.9935 17.2004 80.7888C27.5876 97.8928 50.1558 134.784 51.6206 134.864C53.5276 134.968 100.987 112.438 100.987 112.438L96.933 99.1792L61.3105 109.318L35.3017 69.4511C31.9998 64.39 25.1473 63.0717 20.1954 66.5449Z" fill="#E6E6E6"/>
<path d="M113.212 145.69L174.093 113.566L181.566 127.659C188.013 139.816 183.352 154.907 171.165 161.337L154.448 170.158C142.261 176.589 127.132 171.94 120.685 159.783L113.212 145.69Z" fill="#E5A93F"/>
<path d="M164.792 167.283C159.507 169.691 153.977 168.923 152.442 165.568C150.906 162.213 153.945 157.542 159.232 155.134C161.331 154.143 163.637 153.668 165.958 153.748L188.48 143.827L192.922 154.469L170.248 163.119C168.788 164.922 166.918 166.35 164.792 167.283Z" fill="#A0616A"/>
<path d="M210.598 72.2976C216.179 71.6381 221.319 75.4011 222.358 80.9109C226.067 100.563 233.944 143.061 232.907 144.095C231.556 145.443 181.139 160.261 181.139 160.261L175.287 147.688L208.598 131.523L201.293 84.5187C200.365 78.5516 204.586 73.0078 210.598 72.2976Z" fill="#E6E6E6"/>
</g>
<defs>
<clipPath id="clip0_32_219">
<rect width="233" height="200" fill="white"/>
</clipPath>
</defs>
</svg>
