<?xml version="1.0" encoding="UTF-8" standalone="no"?>
<!DOCTYPE svg PUBLIC "-//W3C//DTD SVG 1.1//EN" "http://www.w3.org/Graphics/SVG/1.1/DTD/svg11.dtd">
<svg width="100%" height="100%" viewBox="0 0 1133 1591" version="1.1" xmlns="http://www.w3.org/2000/svg" xmlns:xlink="http://www.w3.org/1999/xlink" xml:space="preserve" xmlns:serif="http://www.serif.com/" style="fill-rule:evenodd;clip-rule:evenodd;stroke-linejoin:round;stroke-miterlimit:2;">
    <g transform="matrix(1,0,0,1,-433.932707,-204.722136)">
        <g transform="matrix(1,0,0,1,233.932707,124.585904)">
            <path d="M1332.135,568.751L1332.135,1300.709C1332.135,1318.832 1321.376,1335.226 1304.749,1342.437C1174.261,1399.034 621.887,1638.619 621.887,1638.619C523.291,1681.383 411.383,1681.383 312.787,1638.619L278.06,1623.556C230.667,1603 200,1556.271 200,1504.613L200,479.38C200,439.679 223.569,403.765 259.992,387.967L960.925,83.948C975.193,77.76 991.618,79.172 1004.62,87.705C1017.622,96.238 1025.454,110.745 1025.454,126.297L1025.454,246.221L933.561,206.364L302.908,479.9L401.396,522.617C449.907,543.658 504.969,543.658 553.48,522.617L1265.515,213.783C1280.246,207.394 1297.203,208.852 1310.626,217.661C1324.05,226.471 1332.135,241.447 1332.135,257.503L1332.135,257.506C1332.135,257.506 1004.158,399.761 911.679,439.873C897.1,446.196 887.667,460.57 887.667,476.461L887.667,534.93C887.667,548.355 894.422,560.88 905.64,568.255C916.858,575.63 931.035,576.866 943.36,571.544C1044.205,527.995 1252.359,438.105 1314.344,411.338C1318.281,409.638 1322.81,410.033 1326.393,412.388C1329.977,414.744 1332.135,418.745 1332.135,423.034C1332.135,423.035 1332.135,423.036 1332.135,423.036L1221.659,470.744C1221.659,470.744 988.227,572.087 911.666,605.325C897.094,611.651 887.667,626.022 887.667,641.908C887.667,658.146 887.667,679.721 887.667,700.026C887.667,713.451 894.422,725.976 905.64,733.351C916.858,740.726 931.035,741.962 943.36,736.639C1062.66,685.121 1332.135,568.751 1332.135,568.751Z"/>
        </g>
    </g>
</svg>
