<svg width="415" height="226" viewBox="0 0 415 226" fill="none" xmlns="http://www.w3.org/2000/svg">
<g clip-path="url(#clip0_30_39)">
<path d="M55.8063 117.795H42.525C42.058 117.795 41.6101 117.98 41.2799 118.309C40.9497 118.638 40.7642 119.084 40.7642 119.549V125.356C40.7642 125.821 40.9497 126.267 41.2799 126.596C41.6101 126.925 42.058 127.109 42.525 127.109H44.7259V135.81H53.6054V127.109H55.8063C56.2733 127.109 56.7212 126.925 57.0514 126.596C57.3816 126.267 57.5671 125.821 57.5671 125.356V119.549C57.5671 119.084 57.3816 118.638 57.0514 118.309C56.7212 117.98 56.2733 117.795 55.8063 117.795Z" fill="#C8726A"/>
<path d="M69.109 170.938C60.9751 159.083 56.8169 144.967 57.2301 130.613C57.2375 130.282 57.1296 129.959 56.9247 129.698C56.7198 129.437 56.4305 129.255 56.106 129.182V126.673H42.0792V129.147H41.8859C41.6881 129.147 41.4924 129.188 41.3111 129.267C41.1299 129.346 40.9669 129.462 40.8324 129.606C40.6979 129.751 40.5947 129.921 40.5293 130.107C40.464 130.293 40.4378 130.49 40.4524 130.687C41.5575 146.031 37.826 159.791 29.2579 171.967C28.7649 172.667 28.513 173.507 28.5401 174.361L30.0738 221.619C30.1107 222.673 30.5548 223.672 31.3136 224.408C32.0723 225.144 33.0869 225.559 34.1458 225.568H65.8724C66.9433 225.559 67.9685 225.134 68.7296 224.383C69.4906 223.633 69.9274 222.616 69.9468 221.549L70.5379 175.666C70.5553 173.982 70.0569 172.333 69.109 170.938Z" fill="#3F3D56"/>
<path opacity="0.2" d="M53.0376 119.687C53.0376 120.691 52.6374 121.653 51.925 122.363C51.2125 123.072 50.2462 123.471 49.2387 123.471C48.2312 123.471 47.2649 123.072 46.5524 122.363C45.84 121.653 45.4398 120.691 45.4398 119.687" fill="black"/>
<path d="M64.0866 186.635H60.2448C59.878 184.265 58.6715 182.103 56.8436 180.541C55.0158 178.98 52.6871 178.121 50.279 178.121C47.8709 178.121 45.5422 178.98 43.7143 180.541C41.8864 182.103 40.68 184.265 40.3132 186.635H36.4711C36.0623 186.635 35.6584 186.723 35.2869 186.894C34.9155 187.064 34.5854 187.312 34.3193 187.621C34.0531 187.93 33.8572 188.292 33.7449 188.684C33.6326 189.075 33.6067 189.487 33.6688 189.889L37.8419 216.908H61.8045L66.8733 189.98C66.9501 189.572 66.9357 189.152 66.8311 188.751C66.7266 188.349 66.5344 187.975 66.2684 187.656C66.0023 187.337 65.6689 187.08 65.2918 186.903C64.9147 186.727 64.5032 186.635 64.0866 186.635Z" fill="#C8726A"/>
<path d="M386.937 143.207L386.015 179.895L384.874 225.391H346.027L344.689 172.087L343.964 143.207H386.937Z" fill="#E6E6E6"/>
<path d="M368.029 123.688H362.528V196.284H368.029V123.688Z" fill="#C8726A"/>
<path d="M384.187 170.851L383.146 222.998H347.737L346.518 161.903C349.708 161.01 353.049 160.782 356.332 161.231C359.614 161.681 362.769 162.799 365.598 164.517C371.515 168.002 378.161 169.878 384.187 170.851Z" fill="#3F3D56"/>
<path d="M356.503 176.722H351.456V181.749H356.503V176.722Z" fill="#E6E6E6"/>
<path d="M359.941 166.449H354.894V171.476H359.941V166.449Z" fill="#E6E6E6"/>
<path d="M370.779 173.561L366.725 170.566L363.718 174.604L367.772 177.599L370.779 173.561Z" fill="#E6E6E6"/>
<path d="M379.898 182.468L375.844 179.474L372.838 183.512L376.892 186.506L379.898 182.468Z" fill="#E6E6E6"/>
<path d="M364.428 187.605L360.374 184.61L357.367 188.648L361.421 191.643L364.428 187.605Z" fill="#E6E6E6"/>
<path d="M376.28 164.438C376.849 164.438 377.311 163.978 377.311 163.41C377.311 162.843 376.849 162.383 376.28 162.383C375.71 162.383 375.248 162.843 375.248 163.41C375.248 163.978 375.71 164.438 376.28 164.438Z" fill="#3F3D56"/>
<path d="M355.309 157.589C355.878 157.589 356.34 157.129 356.34 156.562C356.34 155.994 355.878 155.534 355.309 155.534C354.739 155.534 354.277 155.994 354.277 156.562C354.277 157.129 354.739 157.589 355.309 157.589Z" fill="#3F3D56"/>
<path d="M372.842 150.398C373.411 150.398 373.873 149.938 373.873 149.371C373.873 148.803 373.411 148.343 372.842 148.343C372.272 148.343 371.81 148.803 371.81 149.371C371.81 149.938 372.272 150.398 372.842 150.398Z" fill="#3F3D56"/>
<path d="M207.737 225.078C270.136 225.078 320.719 174.692 320.719 112.539C320.719 50.3854 270.136 0 207.737 0C145.339 0 94.7556 50.3854 94.7556 112.539C94.7556 174.692 145.339 225.078 207.737 225.078Z" fill="#C8726A"/>
<path opacity="0.2" d="M207.737 194.681C188.659 194.681 170.17 188.092 155.422 176.036C140.674 163.98 130.579 147.203 126.857 128.564C123.135 109.925 126.016 90.5777 135.01 73.8177C144.004 57.0578 158.554 43.9225 176.18 36.6501C193.807 29.3776 213.419 28.4179 231.677 33.9345C249.934 39.4512 265.706 51.1027 276.305 66.904C286.905 82.7052 291.676 101.678 289.806 120.591C287.936 139.503 279.541 157.185 266.05 170.623C258.41 178.274 249.322 184.34 239.313 188.47C229.304 192.6 218.571 194.711 207.737 194.681ZM207.737 35.4625C165.07 35.4625 130.358 70.0388 130.358 112.539C130.358 155.039 165.07 189.615 207.737 189.615C250.405 189.615 285.117 155.039 285.117 112.539C285.117 70.0388 250.405 35.4625 207.737 35.4625Z" fill="black"/>
<path d="M207.737 192.148C251.878 192.148 287.66 156.506 287.66 112.539C287.66 68.5718 251.878 32.9294 207.737 32.9294C163.597 32.9294 127.815 68.5718 127.815 112.539C127.815 156.506 163.597 192.148 207.737 192.148Z" fill="#3F3D56"/>
<path d="M148.301 80.7064C147.694 79.5239 147.328 78.2341 147.223 76.9105C147.118 75.587 147.275 74.2557 147.687 72.9929C148.098 71.73 148.756 70.5604 149.621 69.5507C150.487 68.5411 151.544 67.7113 152.731 67.1088C153.919 66.5063 155.215 66.143 156.543 66.0394C157.872 65.9359 159.209 66.0943 160.476 66.5055C161.743 66.9167 162.917 67.5727 163.93 68.436C164.942 69.2993 165.774 70.353 166.378 71.5367L188.958 115.704C189.564 116.886 189.93 118.176 190.036 119.499C190.141 120.823 189.984 122.154 189.572 123.417C189.161 124.68 188.503 125.85 187.638 126.859C186.772 127.869 185.715 128.699 184.527 129.301C183.339 129.904 182.044 130.267 180.715 130.371C179.386 130.474 178.05 130.316 176.783 129.904C175.515 129.493 174.342 128.837 173.329 127.974C172.316 127.111 171.484 126.057 170.881 124.873L148.301 80.7064Z" fill="#FF6584"/>
<path opacity="0.2" d="M150.819 85.6326L149.777 83.5941C154.978 79.5687 161.086 76.6082 167.854 74.4244L168.896 76.4629C161.571 77.9825 155.338 80.7946 150.819 85.6326Z" fill="black"/>
<path opacity="0.2" d="M155.683 95.1456L154.64 93.1071C159.842 89.0816 165.949 86.1212 172.718 83.9374L173.76 85.9758C166.434 87.4954 160.202 90.3075 155.683 95.1456Z" fill="black"/>
<path opacity="0.2" d="M160.546 104.658L159.504 102.62C164.705 98.5945 170.812 95.634 177.581 93.4502L178.623 95.4887C171.298 97.0082 165.065 99.8203 160.546 104.658Z" fill="black"/>
<path opacity="0.2" d="M165.409 114.171L164.367 112.133C169.568 108.107 175.676 105.147 182.445 102.963L183.487 105.001C176.161 106.521 169.928 109.333 165.409 114.171Z" fill="black"/>
<path opacity="0.2" d="M170.273 123.684L169.231 121.646C174.432 117.62 180.539 114.66 187.308 112.476L188.35 114.514C181.024 116.034 174.792 118.846 170.273 123.684Z" fill="black"/>
<path d="M131.36 97.2408C130.754 96.0583 130.388 94.7685 130.283 93.445C130.178 92.1215 130.335 90.7904 130.747 89.5277C131.158 88.2649 131.816 87.0954 132.681 86.0858C133.547 85.0763 134.604 84.2466 135.792 83.6441C136.979 83.0417 138.274 82.6783 139.603 82.5747C140.932 82.4712 142.268 82.6295 143.536 83.0406C144.803 83.4518 145.976 84.1076 146.989 84.9708C148.002 85.8339 148.834 86.8875 149.437 88.0711L172.018 132.238C173.235 134.625 173.451 137.397 172.619 139.943C171.786 142.489 169.973 144.601 167.577 145.816C165.182 147.032 162.4 147.25 159.843 146.423C157.286 145.596 155.163 143.792 153.94 141.408L131.36 97.2408Z" fill="#FF6584"/>
<path opacity="0.2" d="M133.879 102.167L132.837 100.129C138.038 96.1033 144.145 93.1428 150.914 90.959L151.956 92.9975C144.63 94.517 138.398 97.3291 133.879 102.167Z" fill="black"/>
<path opacity="0.2" d="M138.742 111.68L137.7 109.642C142.901 105.616 149.009 102.656 155.777 100.472L156.819 102.51C149.494 104.03 143.261 106.842 138.742 111.68Z" fill="black"/>
<path opacity="0.2" d="M143.606 121.193L142.563 119.154C147.765 115.129 153.872 112.168 160.641 109.985L161.683 112.023C154.357 113.543 148.125 116.355 143.606 121.193Z" fill="black"/>
<path opacity="0.2" d="M148.469 130.706L147.427 128.667C152.628 124.642 158.736 121.681 165.504 119.498L166.546 121.536C159.221 123.056 152.988 125.868 148.469 130.706Z" fill="black"/>
<path opacity="0.2" d="M153.332 140.219L152.29 138.18C157.491 134.155 163.599 131.194 170.368 129.01L171.41 131.049C164.084 132.568 157.851 135.381 153.332 140.219Z" fill="black"/>
<path d="M261.141 115.072L261.212 115.072C263.644 115.092 266.026 114.382 268.047 113.034C270.067 111.686 271.633 109.762 272.54 107.514C274.405 102.819 275.344 97.8094 275.308 92.7601C275.181 71.3882 257.726 53.855 236.271 53.5594C227.134 53.432 218.234 56.4557 211.08 62.1179C203.925 67.7801 198.956 75.7324 197.016 84.6268C195.075 93.5212 196.282 102.81 200.432 110.92C204.582 119.029 211.419 125.46 219.785 129.121C221.996 130.096 224.451 130.383 226.828 129.944C229.205 129.505 231.394 128.36 233.107 126.66C236.781 122.982 241.149 120.064 245.961 118.075C250.772 116.086 255.931 115.065 261.141 115.072Z" fill="#E6E6E6"/>
<path d="M240.796 103.131C248.019 103.131 253.875 97.2982 253.875 90.1036C253.875 82.9089 248.019 77.0765 240.796 77.0765C233.573 77.0765 227.718 82.9089 227.718 90.1036C227.718 97.2982 233.573 103.131 240.796 103.131Z" fill="#F9A825"/>
<path d="M212.373 88.6386C213.223 88.6386 213.913 87.9515 213.913 87.104C213.913 86.2564 213.223 85.5693 212.373 85.5693C211.522 85.5693 210.832 86.2564 210.832 87.104C210.832 87.9515 211.522 88.6386 212.373 88.6386Z" fill="#3F3D56"/>
<path d="M161.513 90.0861C162.364 90.0861 163.053 89.399 163.053 88.5515C163.053 87.7039 162.364 87.0168 161.513 87.0168C160.662 87.0168 159.972 87.7039 159.972 88.5515C159.972 89.399 160.662 90.0861 161.513 90.0861Z" fill="#3F3D56"/>
<path d="M220.584 72.7342C221.435 72.7342 222.124 72.0471 222.124 71.1996C222.124 70.352 221.435 69.6649 220.584 69.6649C219.733 69.6649 219.043 70.352 219.043 71.1996C219.043 72.0471 219.733 72.7342 220.584 72.7342Z" fill="#3F3D56"/>
<path d="M220.54 116.968C221.391 116.968 222.081 116.281 222.081 115.434C222.081 114.586 221.391 113.899 220.54 113.899C219.689 113.899 218.999 114.586 218.999 115.434C218.999 116.281 219.689 116.968 220.54 116.968Z" fill="#3F3D56"/>
<path d="M251.056 69.5646C251.907 69.5646 252.597 68.8776 252.597 68.03C252.597 67.1824 251.907 66.4954 251.056 66.4954C250.205 66.4954 249.515 67.1824 249.515 68.03C249.515 68.8776 250.205 69.5646 251.056 69.5646Z" fill="#3F3D56"/>
<path d="M151.516 111.54C152.367 111.54 153.056 110.853 153.056 110.006C153.056 109.158 152.367 108.471 151.516 108.471C150.665 108.471 149.975 109.158 149.975 110.006C149.975 110.853 150.665 111.54 151.516 111.54Z" fill="#3F3D56"/>
<path d="M162.778 133.614C163.628 133.614 164.318 132.927 164.318 132.079C164.318 131.232 163.628 130.545 162.778 130.545C161.927 130.545 161.237 131.232 161.237 132.079C161.237 132.927 161.927 133.614 162.778 133.614Z" fill="#3F3D56"/>
<path d="M233.531 140.764C236.741 140.764 239.343 138.172 239.343 134.974C239.343 131.777 236.741 129.185 233.531 129.185C230.321 129.185 227.718 131.777 227.718 134.974C227.718 138.172 230.321 140.764 233.531 140.764Z" fill="#FF6584"/>
<path opacity="0.2" d="M237.89 135.336C237.89 136.488 237.431 137.592 236.613 138.407C235.796 139.221 234.687 139.679 233.531 139.679C232.375 139.679 231.266 139.221 230.448 138.407C229.631 137.592 229.171 136.488 229.171 135.336" fill="black"/>
<path opacity="0.2" d="M229.171 134.612C229.171 133.461 229.631 132.356 230.448 131.542C231.266 130.728 232.375 130.27 233.531 130.27C234.687 130.27 235.796 130.728 236.613 131.542C237.431 132.356 237.89 133.461 237.89 134.612" fill="black"/>
<path d="M231.351 133.527C231.552 133.527 231.714 133.284 231.714 132.984C231.714 132.684 231.552 132.441 231.351 132.441C231.15 132.441 230.988 132.684 230.988 132.984C230.988 133.284 231.15 133.527 231.351 133.527Z" fill="#FF6584"/>
<path d="M233.531 132.803C233.731 132.803 233.894 132.56 233.894 132.26C233.894 131.961 233.731 131.718 233.531 131.718C233.33 131.718 233.167 131.961 233.167 132.26C233.167 132.56 233.33 132.803 233.531 132.803Z" fill="#FF6584"/>
<path d="M233.531 137.507C233.731 137.507 233.894 137.264 233.894 136.965C233.894 136.665 233.731 136.422 233.531 136.422C233.33 136.422 233.167 136.665 233.167 136.965C233.167 137.264 233.33 137.507 233.531 137.507Z" fill="#FF6584"/>
<path d="M235.71 134.612C235.911 134.612 236.074 134.369 236.074 134.07C236.074 133.77 235.911 133.527 235.71 133.527C235.51 133.527 235.347 133.77 235.347 134.07C235.347 134.369 235.51 134.612 235.71 134.612Z" fill="#FF6584"/>
<path d="M235.347 138.593C235.548 138.593 235.71 138.35 235.71 138.05C235.71 137.75 235.548 137.507 235.347 137.507C235.147 137.507 234.984 137.75 234.984 138.05C234.984 138.35 235.147 138.593 235.347 138.593Z" fill="#FF6584"/>
<path d="M230.988 136.784C231.188 136.784 231.351 136.541 231.351 136.241C231.351 135.941 231.188 135.698 230.988 135.698C230.787 135.698 230.625 135.941 230.625 136.241C230.625 136.541 230.787 136.784 230.988 136.784Z" fill="#FF6584"/>
<path d="M245.156 125.204C248.366 125.204 250.968 122.612 250.968 119.414C250.968 116.217 248.366 113.625 245.156 113.625C241.946 113.625 239.343 116.217 239.343 119.414C239.343 122.612 241.946 125.204 245.156 125.204Z" fill="#FF6584"/>
<path opacity="0.2" d="M249.515 119.776C249.515 120.928 249.056 122.032 248.239 122.847C247.421 123.661 246.312 124.118 245.156 124.118C244 124.118 242.891 123.661 242.073 122.847C241.256 122.032 240.797 120.928 240.797 119.776" fill="black"/>
<path opacity="0.2" d="M240.797 119.052C240.797 117.901 241.256 116.796 242.073 115.982C242.891 115.168 244 114.71 245.156 114.71C246.312 114.71 247.421 115.168 248.239 115.982C249.056 116.796 249.515 117.901 249.515 119.052" fill="black"/>
<path d="M242.976 117.967C243.177 117.967 243.339 117.724 243.339 117.424C243.339 117.124 243.177 116.881 242.976 116.881C242.776 116.881 242.613 117.124 242.613 117.424C242.613 117.724 242.776 117.967 242.976 117.967Z" fill="#FF6584"/>
<path d="M245.156 117.243C245.357 117.243 245.519 117 245.519 116.7C245.519 116.401 245.357 116.158 245.156 116.158C244.955 116.158 244.793 116.401 244.793 116.7C244.793 117 244.955 117.243 245.156 117.243Z" fill="#FF6584"/>
<path d="M245.156 121.947C245.357 121.947 245.519 121.704 245.519 121.404C245.519 121.105 245.357 120.862 245.156 120.862C244.955 120.862 244.793 121.105 244.793 121.404C244.793 121.704 244.955 121.947 245.156 121.947Z" fill="#FF6584"/>
<path d="M247.336 119.052C247.536 119.052 247.699 118.809 247.699 118.51C247.699 118.21 247.536 117.967 247.336 117.967C247.135 117.967 246.972 118.21 246.972 118.51C246.972 118.809 247.135 119.052 247.336 119.052Z" fill="#FF6584"/>
<path d="M246.972 123.033C247.173 123.033 247.336 122.79 247.336 122.49C247.336 122.19 247.173 121.947 246.972 121.947C246.772 121.947 246.609 122.19 246.609 122.49C246.609 122.79 246.772 123.033 246.972 123.033Z" fill="#FF6584"/>
<path d="M242.613 121.224C242.814 121.224 242.976 120.981 242.976 120.681C242.976 120.381 242.814 120.138 242.613 120.138C242.412 120.138 242.25 120.381 242.25 120.681C242.25 120.981 242.412 121.224 242.613 121.224Z" fill="#FF6584"/>
<path d="M256.781 133.165C259.991 133.165 262.594 130.573 262.594 127.375C262.594 124.178 259.991 121.585 256.781 121.585C253.571 121.585 250.969 124.178 250.969 127.375C250.969 130.573 253.571 133.165 256.781 133.165Z" fill="#C8726A"/>
<path opacity="0.2" d="M261.14 127.737C261.14 128.889 260.681 129.993 259.864 130.808C259.046 131.622 257.937 132.079 256.781 132.079C255.625 132.079 254.516 131.622 253.698 130.808C252.881 129.993 252.422 128.889 252.422 127.737" fill="black"/>
<path opacity="0.2" d="M252.422 127.013C252.422 125.862 252.881 124.757 253.698 123.943C254.516 123.129 255.625 122.671 256.781 122.671C257.937 122.671 259.046 123.129 259.864 123.943C260.681 124.757 261.14 125.862 261.14 127.013" fill="black"/>
<path d="M254.601 125.928C254.802 125.928 254.965 125.685 254.965 125.385C254.965 125.085 254.802 124.842 254.601 124.842C254.401 124.842 254.238 125.085 254.238 125.385C254.238 125.685 254.401 125.928 254.601 125.928Z" fill="#C8726A"/>
<path d="M256.781 125.204C256.982 125.204 257.144 124.961 257.144 124.661C257.144 124.362 256.982 124.119 256.781 124.119C256.58 124.119 256.418 124.362 256.418 124.661C256.418 124.961 256.58 125.204 256.781 125.204Z" fill="#C8726A"/>
<path d="M256.781 129.908C256.982 129.908 257.144 129.665 257.144 129.365C257.144 129.066 256.982 128.823 256.781 128.823C256.58 128.823 256.418 129.066 256.418 129.365C256.418 129.665 256.58 129.908 256.781 129.908Z" fill="#C8726A"/>
<path d="M258.961 127.013C259.161 127.013 259.324 126.77 259.324 126.471C259.324 126.171 259.161 125.928 258.961 125.928C258.76 125.928 258.597 126.171 258.597 126.471C258.597 126.77 258.76 127.013 258.961 127.013Z" fill="#C8726A"/>
<path d="M258.597 130.994C258.798 130.994 258.961 130.751 258.961 130.451C258.961 130.151 258.798 129.908 258.597 129.908C258.397 129.908 258.234 130.151 258.234 130.451C258.234 130.751 258.397 130.994 258.597 130.994Z" fill="#C8726A"/>
<path d="M254.238 129.185C254.439 129.185 254.601 128.942 254.601 128.642C254.601 128.342 254.439 128.099 254.238 128.099C254.037 128.099 253.875 128.342 253.875 128.642C253.875 128.942 254.037 129.185 254.238 129.185Z" fill="#C8726A"/>
<path d="M227.718 133.889C230.928 133.889 233.531 131.297 233.531 128.099C233.531 124.901 230.928 122.309 227.718 122.309C224.508 122.309 221.906 124.901 221.906 128.099C221.906 131.297 224.508 133.889 227.718 133.889Z" fill="#C8726A"/>
<path opacity="0.2" d="M232.078 128.461C232.078 129.612 231.618 130.717 230.801 131.531C229.983 132.346 228.874 132.803 227.718 132.803C226.562 132.803 225.453 132.346 224.636 131.531C223.818 130.717 223.359 129.612 223.359 128.461" fill="black"/>
<path opacity="0.2" d="M223.359 127.737C223.359 126.585 223.818 125.481 224.636 124.667C225.453 123.852 226.562 123.395 227.718 123.395C228.874 123.395 229.983 123.852 230.801 124.667C231.618 125.481 232.078 126.585 232.078 127.737" fill="black"/>
<path d="M225.538 126.652C225.739 126.652 225.902 126.408 225.902 126.109C225.902 125.809 225.739 125.566 225.538 125.566C225.338 125.566 225.175 125.809 225.175 126.109C225.175 126.408 225.338 126.652 225.538 126.652Z" fill="#C8726A"/>
<path d="M227.718 125.928C227.919 125.928 228.081 125.685 228.081 125.385C228.081 125.085 227.919 124.842 227.718 124.842C227.518 124.842 227.355 125.085 227.355 125.385C227.355 125.685 227.518 125.928 227.718 125.928Z" fill="#C8726A"/>
<path d="M227.718 130.632C227.919 130.632 228.081 130.389 228.081 130.089C228.081 129.789 227.919 129.546 227.718 129.546C227.518 129.546 227.355 129.789 227.355 130.089C227.355 130.389 227.518 130.632 227.718 130.632Z" fill="#C8726A"/>
<path d="M229.898 127.737C230.099 127.737 230.261 127.494 230.261 127.194C230.261 126.895 230.099 126.651 229.898 126.651C229.697 126.651 229.535 126.895 229.535 127.194C229.535 127.494 229.697 127.737 229.898 127.737Z" fill="#C8726A"/>
<path d="M229.535 131.718C229.735 131.718 229.898 131.475 229.898 131.175C229.898 130.875 229.735 130.632 229.535 130.632C229.334 130.632 229.171 130.875 229.171 131.175C229.171 131.475 229.334 131.718 229.535 131.718Z" fill="#C8726A"/>
<path d="M225.175 129.908C225.376 129.908 225.538 129.665 225.538 129.365C225.538 129.066 225.376 128.823 225.175 128.823C224.975 128.823 224.812 129.066 224.812 129.365C224.812 129.665 224.975 129.908 225.175 129.908Z" fill="#C8726A"/>
<path d="M240.796 136.422C244.007 136.422 246.609 133.83 246.609 130.632C246.609 127.434 244.007 124.842 240.796 124.842C237.586 124.842 234.984 127.434 234.984 130.632C234.984 133.83 237.586 136.422 240.796 136.422Z" fill="#C8726A"/>
<path opacity="0.2" d="M245.156 130.994C245.156 131.564 245.043 132.129 244.824 132.656C244.605 133.182 244.284 133.661 243.879 134.064C243.474 134.468 242.994 134.787 242.465 135.006C241.936 135.224 241.369 135.336 240.796 135.336C240.224 135.336 239.657 135.224 239.128 135.006C238.599 134.787 238.119 134.468 237.714 134.064C237.309 133.661 236.988 133.182 236.769 132.656C236.55 132.129 236.437 131.564 236.437 130.994" fill="black"/>
<path opacity="0.2" d="M236.437 130.27C236.437 129.7 236.55 129.135 236.769 128.608C236.988 128.082 237.309 127.603 237.714 127.2C238.119 126.796 238.599 126.477 239.128 126.258C239.657 126.04 240.224 125.928 240.796 125.928C241.369 125.928 241.936 126.04 242.465 126.258C242.994 126.477 243.474 126.796 243.879 127.2C244.284 127.603 244.605 128.082 244.824 128.608C245.043 129.135 245.156 129.7 245.156 130.27" fill="black"/>
<path d="M238.617 129.185C238.817 129.185 238.98 128.942 238.98 128.642C238.98 128.342 238.817 128.099 238.617 128.099C238.416 128.099 238.253 128.342 238.253 128.642C238.253 128.942 238.416 129.185 238.617 129.185Z" fill="#C8726A"/>
<path d="M240.796 128.461C240.997 128.461 241.16 128.218 241.16 127.918C241.16 127.618 240.997 127.375 240.796 127.375C240.596 127.375 240.433 127.618 240.433 127.918C240.433 128.218 240.596 128.461 240.796 128.461Z" fill="#C8726A"/>
<path d="M240.796 133.165C240.997 133.165 241.16 132.922 241.16 132.622C241.16 132.322 240.997 132.079 240.796 132.079C240.596 132.079 240.433 132.322 240.433 132.622C240.433 132.922 240.596 133.165 240.796 133.165Z" fill="#C8726A"/>
<path d="M242.976 130.27C243.177 130.27 243.339 130.027 243.339 129.727C243.339 129.428 243.177 129.185 242.976 129.185C242.776 129.185 242.613 129.428 242.613 129.727C242.613 130.027 242.776 130.27 242.976 130.27Z" fill="#C8726A"/>
<path d="M242.613 134.251C242.814 134.251 242.976 134.008 242.976 133.708C242.976 133.408 242.814 133.165 242.613 133.165C242.412 133.165 242.25 133.408 242.25 133.708C242.25 134.008 242.412 134.251 242.613 134.251Z" fill="#C8726A"/>
<path d="M238.253 132.441C238.454 132.441 238.617 132.198 238.617 131.899C238.617 131.599 238.454 131.356 238.253 131.356C238.053 131.356 237.89 131.599 237.89 131.899C237.89 132.198 238.053 132.441 238.253 132.441Z" fill="#C8726A"/>
<path d="M249.879 142.573C253.089 142.573 255.691 139.981 255.691 136.784C255.691 133.586 253.089 130.994 249.879 130.994C246.668 130.994 244.066 133.586 244.066 136.784C244.066 139.981 246.668 142.573 249.879 142.573Z" fill="#FF6584"/>
<path opacity="0.2" d="M254.238 137.146C254.238 138.297 253.779 139.402 252.961 140.216C252.144 141.03 251.035 141.488 249.879 141.488C248.722 141.488 247.614 141.03 246.796 140.216C245.978 139.402 245.519 138.297 245.519 137.146" fill="black"/>
<path opacity="0.2" d="M245.519 136.422C245.519 135.27 245.978 134.166 246.796 133.351C247.614 132.537 248.722 132.079 249.879 132.079C251.035 132.079 252.144 132.537 252.961 133.351C253.779 134.166 254.238 135.27 254.238 136.422" fill="black"/>
<path d="M247.699 135.336C247.899 135.336 248.062 135.093 248.062 134.793C248.062 134.494 247.899 134.251 247.699 134.251C247.498 134.251 247.336 134.494 247.336 134.793C247.336 135.093 247.498 135.336 247.699 135.336Z" fill="#FF6584"/>
<path d="M249.879 134.612C250.079 134.612 250.242 134.369 250.242 134.07C250.242 133.77 250.079 133.527 249.879 133.527C249.678 133.527 249.515 133.77 249.515 134.07C249.515 134.369 249.678 134.612 249.879 134.612Z" fill="#FF6584"/>
<path d="M249.879 139.317C250.079 139.317 250.242 139.074 250.242 138.774C250.242 138.474 250.079 138.231 249.879 138.231C249.678 138.231 249.515 138.474 249.515 138.774C249.515 139.074 249.678 139.317 249.879 139.317Z" fill="#FF6584"/>
<path d="M252.058 136.422C252.259 136.422 252.422 136.179 252.422 135.879C252.422 135.579 252.259 135.336 252.058 135.336C251.858 135.336 251.695 135.579 251.695 135.879C251.695 136.179 251.858 136.422 252.058 136.422Z" fill="#FF6584"/>
<path d="M251.695 140.402C251.896 140.402 252.058 140.159 252.058 139.859C252.058 139.56 251.896 139.317 251.695 139.317C251.494 139.317 251.332 139.56 251.332 139.859C251.332 140.159 251.494 140.402 251.695 140.402Z" fill="#FF6584"/>
<path d="M247.336 138.593C247.536 138.593 247.699 138.35 247.699 138.05C247.699 137.75 247.536 137.507 247.336 137.507C247.135 137.507 246.972 137.75 246.972 138.05C246.972 138.35 247.135 138.593 247.336 138.593Z" fill="#FF6584"/>
<path d="M175.129 116.245C175.98 116.245 176.67 115.558 176.67 114.71C176.67 113.862 175.98 113.175 175.129 113.175C174.278 113.175 173.589 113.862 173.589 114.71C173.589 115.558 174.278 116.245 175.129 116.245Z" fill="#3F3D56"/>
<path d="M217.008 170.414L180.006 160.193L181.424 154.948L218.425 165.17L217.008 170.414Z" fill="#F9A825"/>
<path d="M211.584 168.661C198.913 171.077 185.896 171.077 173.225 168.661V163.225C185.925 165.321 198.884 165.321 211.584 163.225V168.661Z" fill="#F9A825"/>
<path d="M215.527 152.352C202.856 154.768 189.84 154.768 177.169 152.352V146.916C189.868 149.012 202.828 149.012 215.527 146.916V152.352Z" fill="#F9A825"/>
<path d="M228.791 158.876C216.12 161.292 203.104 161.292 190.433 158.876V153.439C203.132 155.536 216.092 155.536 228.791 153.439V158.876Z" fill="#F9A825"/>
<path d="M232.018 165.037C219.346 167.453 206.33 167.453 193.659 165.037V159.601C206.359 161.697 219.318 161.697 232.018 159.601V165.037Z" fill="#F9A825"/>
<path d="M243.266 173.088L205.422 179.42L204.545 174.056L242.388 167.724L243.266 173.088Z" fill="#F9A825"/>
<path d="M237.613 173.785C227.121 181.318 215.296 186.812 202.759 189.977L200.513 185.037C212.941 181.571 224.715 176.101 235.368 168.845L237.613 173.785Z" fill="#F9A825"/>
<path d="M234.46 157.301C223.968 164.834 212.143 170.328 199.606 173.493L197.361 168.554C209.788 165.087 221.562 159.617 232.215 152.361L234.46 157.301Z" fill="#F9A825"/>
<path d="M249.207 157.629C238.715 165.163 226.89 170.656 214.353 173.822L212.107 168.882C224.535 165.416 236.309 159.946 246.962 152.69L249.207 157.629Z" fill="#F9A825"/>
<path d="M254.684 161.866C244.192 169.399 232.367 174.893 219.829 178.058L217.584 173.118C230.011 169.652 241.785 164.182 252.438 156.926L254.684 161.866Z" fill="#F9A825"/>
<path d="M208.827 151.258H207.011V153.067H208.827V151.258Z" fill="#00BF71"/>
<path d="M214.277 182.74H212.46V184.549H214.277V182.74Z" fill="#00BF71"/>
<path d="M185.214 151.258H183.397V153.067H185.214V151.258Z" fill="#00BF71"/>
<path d="M227.355 173.693H225.538V175.503H227.355V173.693Z" fill="#00BF71"/>
<path d="M228.445 163.2H226.628V165.009H228.445V163.2Z" fill="#00BF71"/>
<path d="M198.481 158.246L196.376 156.823L195.56 158.021L197.665 159.443L198.481 158.246Z" fill="#00BF71"/>
<path d="M219.914 162.226L217.81 160.804L216.994 162.002L219.099 163.424L219.914 162.226Z" fill="#00BF71"/>
<path d="M193.758 169.101L191.654 167.679L190.838 168.877L192.942 170.299L193.758 169.101Z" fill="#00BF71"/>
<path d="M207.08 168.996L208.508 166.9L207.305 166.087L205.877 168.184L207.08 168.996Z" fill="#00BF71"/>
<path d="M216.889 171.529L218.316 169.433L217.114 168.62L215.686 170.717L216.889 171.529Z" fill="#00BF71"/>
<path d="M243.048 162.844L244.475 160.748L243.273 159.935L241.845 162.032L243.048 162.844Z" fill="#00BF71"/>
<path d="M415 224.957H0V226H415V224.957Z" fill="#3F3D56"/>
</g>
<defs>
<clipPath id="clip0_30_39">
<rect width="415" height="226" fill="white"/>
</clipPath>
</defs>
</svg>
